<svg width="49" height="47" viewBox="0 0 49 47" fill="none" xmlns="http://www.w3.org/2000/svg">
<path d="M46.5047 28.8384C46.3396 28.6183 46.1745 28.4532 46.0094 28.3431L45.9543 21.5738V21.5187C45.9543 15.5749 43.5328 10.1815 39.6253 6.274C35.7728 2.36651 30.3794 0 24.4356 0C18.4918 0 13.0984 2.42155 9.19087 6.32904C5.28337 10.2365 2.86183 15.63 2.86183 21.5738V21.6288L2.9719 28.233C2.75176 28.3981 2.53162 28.6183 2.36651 28.7834C0.935597 30.2143 0 32.2506 0 34.452C0 36.6534 0.880562 38.6897 2.36651 40.1206C3.52225 41.2763 5.06323 42.1019 6.76932 42.377C7.0445 43.4777 7.59485 44.4133 8.36534 45.1838C9.46604 46.2845 10.952 46.945 12.548 46.945C14.1991 46.945 15.685 46.2845 16.7307 45.1838C17.8314 44.0831 18.4918 42.5972 18.4918 41.0012V27.9578C18.4918 26.3068 17.8314 24.8208 16.7307 23.7752C15.63 22.6745 14.144 22.014 12.548 22.014C10.897 22.014 9.41101 22.6745 8.36534 23.7752C7.59485 24.5457 7.0445 25.4813 6.76932 26.582C6.43911 26.637 6.16394 26.692 5.83372 26.8021L5.77869 21.6288V21.5738C5.77869 16.4005 7.87002 11.7775 11.2272 8.36534C14.5843 5.0082 19.2623 2.91686 24.4356 2.91686C29.6089 2.91686 34.2319 5.0082 37.644 8.36534C41.0012 11.7225 43.0925 16.4005 43.0925 21.5738V21.6288L43.1475 26.8571C42.8173 26.7471 42.4871 26.692 42.1019 26.637C41.8267 25.5363 41.2763 24.6007 40.5059 23.8302C39.4052 22.7295 37.9192 22.0691 36.3232 22.0691C34.6721 22.0691 33.1862 22.7295 32.1405 23.8302C31.0398 24.9309 30.3794 26.4169 30.3794 28.0129V41.0562C30.3794 42.7073 31.0398 44.1932 32.1405 45.2389C33.2412 46.3396 34.7272 47 36.3232 47C37.9742 47 39.4602 46.3396 40.5059 45.2389C41.2763 44.4684 41.8267 43.5328 42.1019 42.4321C43.808 42.1569 45.3489 41.3864 46.5047 40.1756C47.9356 38.7447 48.8712 36.7084 48.8712 34.507C48.8712 32.3056 47.9906 30.2693 46.5047 28.8384ZM9.52108 34.452V27.9578C9.52108 27.1323 9.85129 26.3618 10.4016 25.8115C10.897 25.2061 11.6674 24.8759 12.548 24.8759C13.3735 24.8759 14.144 25.2061 14.6944 25.7564C15.2447 26.3068 15.5749 27.0773 15.5749 27.9028V40.9461C15.5749 41.7717 15.2447 42.5422 14.6944 43.0925C14.144 43.6429 13.3735 43.9731 12.548 43.9731C11.7225 43.9731 10.952 43.6429 10.4016 43.0925C9.85129 42.5422 9.52108 41.7717 9.52108 40.9461V34.452ZM6.60422 29.4988V34.452V39.4052C5.77869 39.185 5.0082 38.6897 4.40281 38.0843C3.46721 37.1487 2.91686 35.8829 2.91686 34.452C2.91686 33.0211 3.46721 31.7553 4.40281 30.8197C5.0082 30.2143 5.77869 29.774 6.60422 29.4988ZM39.3501 34.452V40.9461C39.3501 41.7717 39.0199 42.5422 38.4696 43.0925C37.9742 43.6979 37.2038 44.0281 36.3232 44.0281C35.4977 44.0281 34.7272 43.6979 34.1768 43.1475C33.6265 42.5972 33.2963 41.8267 33.2963 41.0012V27.9578C33.2963 27.1323 33.6265 26.3618 34.1768 25.8115C34.7272 25.2611 35.4977 24.9309 36.3232 24.9309C37.1487 24.9309 37.9192 25.2611 38.4696 25.8115C39.0199 26.3618 39.3501 27.1323 39.3501 27.9578V34.452ZM44.4684 38.0843C43.863 38.6897 43.0925 39.13 42.267 39.4052V34.452V29.4988C43.0925 29.719 43.863 30.2143 44.4684 30.8197C45.404 31.7553 45.9543 33.0211 45.9543 34.452C46.0094 35.8829 45.404 37.1487 44.4684 38.0843Z" fill="#666565"/>
</svg>
