<svg width="72" height="39" viewBox="0 0 72 39" fill="none" xmlns="http://www.w3.org/2000/svg">
<path d="M22.0144 29.7451C22.0144 32.0222 19.5772 33.4692 17.578 32.3789L1.56362 23.6452C0.599739 23.1195 0 22.1093 0 21.0114V17.9286C0 16.8282 0.602517 15.816 1.5699 15.2915L17.5843 6.60715C19.5833 5.52317 22.0144 6.97042 22.0144 9.24435V10.1282C22.0144 11.2816 21.3531 12.3329 20.3134 12.8324L12.1999 16.7299C9.95025 17.8106 9.9269 21.0056 12.1605 22.119L20.3528 26.2028C21.371 26.7104 22.0144 27.7501 22.0144 28.8877V29.7451Z" fill="#666565"/>
<path d="M28.867 39C27.3703 39 26.334 37.5055 26.8587 36.1038L39.849 1.40182C40.1646 0.55871 40.9703 0 41.8706 0C43.3779 0 44.4211 1.50564 43.8916 2.91686L30.8748 37.6089C30.5608 38.4457 29.7608 39 28.867 39Z" fill="#666565"/>
<path d="M54.3644 32.3719C52.3652 33.4647 49.9254 32.0179 49.9254 29.7395V28.8943C49.9254 27.7532 50.5727 26.711 51.5955 26.2052L59.804 22.1456C62.0345 21.0424 62.0297 17.8596 59.7957 16.7633L51.6038 12.7431C50.5764 12.239 49.9254 11.1943 49.9254 10.05V9.24429C49.9254 6.96964 52.358 5.52246 54.3569 6.60787L70.3714 15.3034C71.338 15.8282 71.9398 16.8399 71.9398 17.9398V20.9856C71.9398 22.0824 71.3412 23.0919 70.3788 23.618L54.3644 32.3719Z" fill="#666565"/>
</svg>
