<svg width="45" height="47" viewBox="0 0 45 47" fill="none" xmlns="http://www.w3.org/2000/svg">
<path d="M32.8842 0H12.357C5.67629 0 0.241257 5.67699 0.241257 12.6552V34.0965C0.241257 41.0743 5.67629 46.7513 12.357 46.7513H32.8846C39.565 46.7513 45 41.0743 45 34.0965V12.6552C45 5.67699 39.565 0 32.8842 0V0ZM42.3761 34.0965C42.3761 39.5631 38.1181 44.0106 32.8842 44.0106H12.357C7.12315 44.0106 2.86521 39.5631 2.86521 34.0965V12.6552C2.86521 7.18826 7.12315 2.74076 12.357 2.74076H32.8846C38.1181 2.74076 42.3761 7.18826 42.3761 12.6552V34.0965Z" fill="#666565"/>
<path d="M22.6206 10.5925C15.8723 10.5925 10.3823 16.3269 10.3823 23.3757C10.3823 30.4245 15.8723 36.1589 22.6206 36.1589C29.369 36.1589 34.859 30.4245 34.859 23.3757C34.859 16.3269 29.369 10.5925 22.6206 10.5925ZM22.6206 33.4181C17.3195 33.4181 13.0062 28.9132 13.0062 23.3757C13.0062 17.8385 17.3195 13.3332 22.6206 13.3332C27.9221 13.3332 32.2351 17.8385 32.2351 23.3757C32.2351 28.9132 27.9221 33.4181 22.6206 33.4181Z" fill="#666565"/>
<path d="M35.1517 6.05255C33.1574 6.05255 31.5354 7.74716 31.5354 9.82984C31.5354 11.9129 33.1574 13.6075 35.1517 13.6075C37.1459 13.6075 38.7683 11.9129 38.7683 9.82984C38.7683 7.7468 37.1459 6.05255 35.1517 6.05255ZM35.1517 10.8664C34.6046 10.8664 34.1593 10.4012 34.1593 9.82984C34.1593 9.25807 34.6046 8.79331 35.1517 8.79331C35.6991 8.79331 36.1443 9.25807 36.1443 9.82984C36.1443 10.4012 35.6991 10.8664 35.1517 10.8664Z" fill="#666565"/>
</svg>
