<svg width="72" height="43" viewBox="0 0 72 43" fill="none" xmlns="http://www.w3.org/2000/svg">
<path d="M35.8341 0C26.2783 0 20.3053 4.77793 17.9167 14.3338C21.5003 9.55518 25.6811 7.76371 30.459 8.9587C33.1845 9.63991 35.1333 11.6178 37.2901 13.8071C40.8032 17.3724 44.8694 21.5003 53.7509 21.5003C63.3067 21.5003 69.2789 16.7224 71.6676 7.16655C68.0846 11.9452 63.9039 13.7366 59.1259 12.5416C56.3998 11.8604 54.4517 9.88256 52.2949 7.69322C48.7811 4.1279 44.7156 0 35.8341 0ZM17.9167 21.5003C8.36154 21.5003 2.38863 26.2783 0 35.8341C3.58362 31.0555 7.76371 29.264 12.5416 30.459C15.2678 31.1402 17.2165 33.1181 19.3727 35.3068C22.8865 38.8735 26.9527 43 35.8341 43C45.3893 43 51.3615 38.2228 53.7509 28.6669C50.1672 33.4455 45.9865 35.237 41.2092 34.042C38.483 33.3608 36.5343 31.3829 34.3775 29.1936C30.8644 25.6282 26.7982 21.5003 17.9167 21.5003Z" fill="#666565"/>
</svg>
