<svg width="53" height="47" viewBox="0 0 53 47" xmlns="http://www.w3.org/2000/svg">
<path d="M52.271 5.45697C51.8902 5.18038 51.3872 5.19437 51.0209 5.49301C50.65 5.7944 50.048 6.05358 49.3636 6.26615C51.2372 3.91884 51.2761 2.34963 51.254 1.98025C51.2288 1.56139 50.993 1.19035 50.6394 1.0115C50.2842 0.833863 49.8682 0.875958 49.5522 1.12225C47.304 2.87527 45.0657 3.2571 43.7202 3.29975C41.6318 1.16831 38.9241 0 36.0451 0C29.8558 0 24.8202 5.47504 24.8202 12.2045C24.8202 12.7493 24.8538 13.293 24.9197 13.8322C14.3536 13.6392 5.77771 2.7859 5.68919 2.67173C5.46492 2.38335 5.12439 2.22643 4.77226 2.26246C4.42332 2.29508 4.11052 2.50875 3.93553 2.83428C0.956968 8.37962 2.77656 13.2727 4.60354 16.2042C4.4149 16.0838 4.26034 15.9731 4.15457 15.8894C3.83181 15.6318 3.40113 15.5891 3.04017 15.7797C2.67859 15.9709 2.44753 16.3622 2.44076 16.7945C2.36004 22.1121 4.67573 25.2235 6.9257 26.9867C6.68212 27.0227 6.45363 27.1474 6.28224 27.3477C6.02448 27.6478 5.9338 28.0723 6.04492 28.4631C7.60521 33.9437 11.3891 35.8851 13.8878 36.5722C8.83329 40.6647 1.5076 39.3289 1.42637 39.3125C0.94064 39.2209 0.454499 39.4957 0.254867 39.9827C0.0557485 40.469 0.19202 41.0391 0.586047 41.3612C5.97365 45.7737 12.4171 46.7513 17.0711 46.7513C20.5905 46.7513 23.086 46.1919 23.326 46.1362C46.803 40.1658 47.5472 17.1474 47.499 13.2247C51.9032 8.8246 52.5959 7.13572 52.7038 6.71565C52.8254 6.24025 52.6514 5.73423 52.271 5.45697ZM45.6854 11.8879C45.4462 12.124 45.3199 12.4647 45.3418 12.8133C45.3455 12.8751 45.705 19.1143 43.114 26.0663C39.6524 35.3549 32.8281 41.3534 22.8523 43.8903C22.7454 43.9144 13.5172 45.9654 5.41614 41.8308C8.8794 41.675 13.6755 40.6282 17.0503 36.5627C17.3321 36.2236 17.3992 35.6995 17.2257 35.2852C17.0523 34.8719 16.6672 34.5678 16.2449 34.5678C16.2429 34.5678 16.2407 34.5678 16.2377 34.5678C15.9542 34.5678 11.0685 34.5285 8.72752 29.465C9.67424 29.5089 10.806 29.449 11.7181 28.9981C12.1383 28.79 12.3866 28.3259 12.3348 27.8329C12.2829 27.3397 11.9424 26.9426 11.4896 26.8402C11.2271 26.7806 5.56956 25.4257 4.6973 18.8296C5.56648 19.2182 6.64997 19.5191 7.72772 19.3459C8.14167 19.2796 8.48065 18.9602 8.59793 18.529C8.71479 18.0984 8.58694 17.6331 8.27096 17.3379C8.02624 17.1098 2.69204 12.0183 5.13466 5.43956C8.02624 8.67187 16.2726 16.7202 26.2719 16.1051C26.591 16.0854 26.8855 15.9134 27.075 15.6368C27.2642 15.3602 27.3287 15.0077 27.2506 14.675C27.0619 13.8688 26.9661 13.0378 26.9661 12.2046C26.9661 6.74474 31.0387 2.30301 36.045 2.30301C38.4933 2.30301 40.7896 3.35154 42.5115 5.25586C42.7089 5.4746 42.9793 5.5999 43.2634 5.60563C44.2551 5.61577 45.8883 5.50105 47.7336 4.76449C47.1833 5.45598 46.4138 6.2656 45.3376 7.17252C44.9657 7.48625 44.8289 8.0249 45.0012 8.49776C45.1741 8.97171 45.6231 9.27134 46.0862 9.22583C46.3031 9.20732 47.3547 9.10781 48.587 8.83959C47.8809 9.64513 46.9394 10.6505 45.6854 11.8879Z" fill="#666565"/>
</svg>
