<svg width="45" height="47" viewBox="0 0 45 47" fill="none" xmlns="http://www.w3.org/2000/svg">
<path d="M22.3794 0C10.0795 0 0 10.6196 0 23.467C0 36.2398 9.98767 46.7513 22.3794 46.7513C34.7557 46.7513 44.7587 36.2555 44.7587 23.467C44.7587 10.6196 34.6792 0 22.3794 0ZM26.3132 43.6011C25.0545 43.875 23.717 44.012 22.3794 44.012C21.0418 44.012 19.7042 43.875 18.4455 43.6011V37.1911C18.4455 35.657 18.8389 35.1091 19.3634 34.3694C19.6304 34.0505 19.7916 33.7645 20.9892 31.8769L18.97 31.548C13.7771 30.7537 11.7316 27.9319 10.9185 25.7405C9.86952 22.8096 10.4203 19.1386 12.3087 16.8105C12.5973 16.4542 12.8332 15.8514 12.6236 15.2215C12.2298 13.9613 12.2824 11.9618 12.5447 11.1945C13.9352 11.4021 15.365 12.4426 16.5574 13.1945C17.1069 13.5294 17.3951 13.4409 17.6587 13.4684C18.6169 13.2601 20.1116 12.7561 22.4057 12.7561C23.8218 12.7561 25.3168 12.9751 26.7855 13.4135C27.0481 13.407 27.4702 13.6403 28.2016 13.1945C29.4481 12.4012 30.8293 11.3964 32.2141 11.1945C32.4763 11.9618 32.5289 13.9613 32.1355 15.2215C31.9255 15.8514 32.1615 16.4542 32.4504 16.8105C34.3384 19.139 34.8892 22.8096 33.8402 25.7405C33.0271 27.9319 30.9816 30.7537 25.7887 31.548L23.7695 31.8769C25.0074 33.8279 25.1379 34.0619 25.3957 34.3694C25.9199 35.1091 26.3132 35.657 26.3132 37.1911V43.6011ZM28.9358 42.8068V37.1911C28.9358 35.6296 28.621 34.5887 28.2013 33.8215C32.1878 32.6987 35.0204 30.2329 36.2791 26.6992C37.6166 22.974 37.0136 18.5362 34.784 15.468C35.1778 13.6328 35.1778 10.7016 34.2336 9.33193C33.8139 8.72949 33.2368 8.40063 32.5026 8.40063C32.4763 8.40063 32.4763 8.40063 32.4763 8.40063C30.4428 8.51548 28.8423 9.58518 27.1263 10.6741C25.5528 10.2358 23.9529 10.0168 22.3531 10.0168C20.7273 10.0168 19.1011 10.2632 17.6591 10.6741C15.8526 9.53631 14.2675 8.51263 12.1776 8.40063C11.5219 8.40063 10.9448 8.72949 10.5252 9.33193C9.5813 10.7016 9.58131 13.6328 9.97469 15.468C7.74516 18.5362 7.1421 23.0011 8.47968 26.6992C9.73839 30.2329 12.571 32.6987 16.5574 33.8215C16.232 34.4161 15.9745 35.1833 15.8731 36.2216C15.0679 36.5116 14.3696 36.6062 13.7201 36.4068C13.0351 36.1953 12.5013 35.7177 12.0376 34.903C10.9961 33.0753 9.22207 31.5833 7.2022 31.7774L7.4327 34.506C8.36802 34.4165 9.2989 35.4501 9.78244 36.3023C10.5801 37.7055 11.6548 38.6257 12.9773 39.0337C13.9591 39.3359 14.8565 39.3287 15.8229 39.1133V42.8068C8.19113 40.0125 2.62258 32.3973 2.62258 23.467C2.62258 12.1262 11.5219 2.73934 22.3794 2.73934C33.2368 2.73934 42.1362 12.1262 42.1362 23.467C42.1362 32.3973 36.5676 40.0125 28.9358 42.8068Z" fill="#666565"/>
</svg>
