<svg width="30" height="28" viewBox="0 0 30 28" fill="none" xmlns="http://www.w3.org/2000/svg">
<path d="M29.9034 7.79698C29.9034 12.7019 26.563 18.4491 21.5341 23.1243C19.529 24.9904 17.3211 26.6258 14.9517 28C6.82672 23.2009 3.70506e-07 14.6784 3.70506e-07 7.79698C-0.000537044 6.05335 0.583575 4.35988 1.65895 2.98735C2.73432 1.61482 4.23884 0.642489 5.93196 0.225825C7.62507 -0.19084 9.40901 -0.0277756 10.9985 0.688945C12.588 1.40567 13.8914 2.63465 14.7001 4.1794C14.7912 4.34958 14.8751 4.52463 14.9517 4.70453C15.1652 4.21255 15.4279 3.74339 15.7357 3.30418C16.6899 1.95085 18.0502 0.936489 19.6195 0.408066C21.1888 -0.120358 22.8855 -0.135389 24.4639 0.365151C26.0424 0.86569 27.4204 1.8558 28.3984 3.19201C29.3764 4.52821 29.9035 6.14111 29.9034 7.79698Z" fill="#DA364C"/>
<path d="M28.0045 10.3534C27.7558 14.4527 25.2928 19.0691 21.5341 23.1243C19.5291 24.9904 17.3211 26.6259 14.9517 28C6.82674 23.2009 1.84111e-05 14.6784 1.84111e-05 7.79701C-0.00348665 6.18813 0.493552 4.61799 1.42225 3.30421C2.73601 2.37502 4.30591 1.87678 5.91505 1.87833C9.1242 1.87833 12.2239 4.25783 13.4172 7.02572C13.7705 6.15834 14.2921 5.36947 14.9517 4.70456C15.0429 4.87596 14.8751 4.52587 14.9517 4.70456L14.9583 4.68961C15.3873 3.7108 16.1714 2.931 17.1525 2.50739C18.1477 2.08082 19.221 1.86657 20.3037 1.87833C24.8424 1.91881 28.2795 5.82266 28.0045 10.3534Z" fill="#EF5261"/>
</svg>
