<svg width="53" height="38" viewBox="0 0 53 38" fill="none" xmlns="http://www.w3.org/2000/svg">
<path d="M0.000313892 31.0213L6.15284 27.2598C7.34001 29.3858 8.41976 31.1846 11.0099 31.1846C13.4925 31.1846 15.0582 30.2037 15.0582 26.3877V0.436548H22.6136V26.4956C22.6136 34.4007 18.0264 37.999 11.3337 37.999C5.28948 37.999 1.78106 34.8369 0 31.0206L0.000313892 31.0213ZM26.7175 30.2034L32.8694 26.6053C34.489 29.277 36.5939 31.2395 40.3174 31.2395C43.4484 31.2395 45.4445 29.6583 45.4445 27.4775C45.4445 24.8607 43.3937 23.9337 39.9396 22.4077L38.0511 21.5891C32.5999 19.2456 28.9841 16.3014 28.9841 10.0863C28.9841 4.36168 33.3015 0 40.048 0C44.8513 0 48.3054 1.69035 50.7877 6.10628L44.9047 9.9229C43.6091 7.57868 42.2065 6.65197 40.0477 6.65197C37.8348 6.65197 36.4315 8.06948 36.4315 9.9229C36.4315 12.2126 37.8348 13.1399 41.0728 14.5574L42.9615 15.375C49.3842 18.1558 53 20.9905 53 27.3687C53 34.2386 47.6571 38 40.4792 38C33.4633 38 28.9298 34.6199 26.7172 30.2037" fill="#666565"/>
</svg>
